<mxfile host="app.diagrams.net" modified="2023-01-30T09:16:25.718Z" agent="5.0 (Macintosh; Intel Mac OS X 10_15_2) AppleWebKit/537.36 (KHTML, like Gecko) Chrome/109.0.0.0 Safari/537.36" etag="OrsjE3nHyCdcvZXd0DTw" version="20.8.13" type="github">
  <diagram name="第 1 页" id="pyim4qZ4rd5q3mOowQ-e">
    <mxGraphModel dx="2120" dy="1138" grid="1" gridSize="10" guides="1" tooltips="1" connect="1" arrows="1" fold="1" page="1" pageScale="1" pageWidth="827" pageHeight="1169" math="0" shadow="0">
      <root>
        <mxCell id="0" />
        <mxCell id="1" parent="0" />
        <mxCell id="yMuCJ4eydJoWDQ9Kz_5B-32" value="" style="rounded=0;whiteSpace=wrap;html=1;glass=0;strokeWidth=2;fillColor=#d5e8d4;strokeColor=#82b366;" vertex="1" parent="1">
          <mxGeometry x="950" y="515" width="160" height="155" as="geometry" />
        </mxCell>
        <mxCell id="yMuCJ4eydJoWDQ9Kz_5B-1" value="" style="rounded=0;whiteSpace=wrap;html=1;strokeWidth=2;" vertex="1" parent="1">
          <mxGeometry x="110" y="470" width="50" height="20" as="geometry" />
        </mxCell>
        <mxCell id="yMuCJ4eydJoWDQ9Kz_5B-39" style="edgeStyle=orthogonalEdgeStyle;rounded=0;orthogonalLoop=1;jettySize=auto;html=1;entryX=0;entryY=0.5;entryDx=0;entryDy=0;strokeWidth=2;curved=1;" edge="1" parent="1" source="yMuCJ4eydJoWDQ9Kz_5B-2" target="yMuCJ4eydJoWDQ9Kz_5B-8">
          <mxGeometry relative="1" as="geometry">
            <Array as="points">
              <mxPoint x="310" y="593" />
              <mxPoint x="310" y="233" />
            </Array>
          </mxGeometry>
        </mxCell>
        <mxCell id="yMuCJ4eydJoWDQ9Kz_5B-40" style="edgeStyle=orthogonalEdgeStyle;curved=1;rounded=0;orthogonalLoop=1;jettySize=auto;html=1;entryX=0;entryY=0.5;entryDx=0;entryDy=0;strokeWidth=2;" edge="1" parent="1" source="yMuCJ4eydJoWDQ9Kz_5B-2" target="yMuCJ4eydJoWDQ9Kz_5B-15">
          <mxGeometry relative="1" as="geometry" />
        </mxCell>
        <mxCell id="yMuCJ4eydJoWDQ9Kz_5B-41" style="edgeStyle=orthogonalEdgeStyle;curved=1;rounded=0;orthogonalLoop=1;jettySize=auto;html=1;entryX=0;entryY=0.426;entryDx=0;entryDy=0;entryPerimeter=0;strokeWidth=2;" edge="1" parent="1" source="yMuCJ4eydJoWDQ9Kz_5B-2" target="yMuCJ4eydJoWDQ9Kz_5B-19">
          <mxGeometry relative="1" as="geometry" />
        </mxCell>
        <mxCell id="yMuCJ4eydJoWDQ9Kz_5B-2" value="" style="rounded=0;whiteSpace=wrap;html=1;glass=0;strokeWidth=2;fillColor=#d5e8d4;strokeColor=#82b366;" vertex="1" parent="1">
          <mxGeometry x="70" y="515" width="160" height="155" as="geometry" />
        </mxCell>
        <mxCell id="yMuCJ4eydJoWDQ9Kz_5B-3" value="&lt;b&gt;&lt;font color=&quot;#08a89c&quot; style=&quot;font-size: 16px;&quot;&gt;操作区&lt;/font&gt;&lt;/b&gt;" style="text;html=1;strokeColor=none;fillColor=none;align=center;verticalAlign=middle;whiteSpace=wrap;rounded=0;" vertex="1" parent="1">
          <mxGeometry x="120" y="695" width="60" height="30" as="geometry" />
        </mxCell>
        <mxCell id="yMuCJ4eydJoWDQ9Kz_5B-5" value="" style="endArrow=none;html=1;rounded=0;strokeWidth=2;dashed=1;" edge="1" parent="1">
          <mxGeometry width="50" height="50" relative="1" as="geometry">
            <mxPoint x="70" y="515" as="sourcePoint" />
            <mxPoint x="70" y="390" as="targetPoint" />
          </mxGeometry>
        </mxCell>
        <mxCell id="yMuCJ4eydJoWDQ9Kz_5B-6" value="" style="endArrow=none;html=1;rounded=0;strokeWidth=2;dashed=1;" edge="1" parent="1">
          <mxGeometry width="50" height="50" relative="1" as="geometry">
            <mxPoint x="230" y="515" as="sourcePoint" />
            <mxPoint x="230" y="390" as="targetPoint" />
          </mxGeometry>
        </mxCell>
        <mxCell id="yMuCJ4eydJoWDQ9Kz_5B-7" value="" style="rounded=0;whiteSpace=wrap;html=1;strokeWidth=2;" vertex="1" parent="1">
          <mxGeometry x="414" y="135" width="50" height="20" as="geometry" />
        </mxCell>
        <mxCell id="yMuCJ4eydJoWDQ9Kz_5B-43" style="edgeStyle=orthogonalEdgeStyle;curved=1;rounded=0;orthogonalLoop=1;jettySize=auto;html=1;entryX=0;entryY=0.5;entryDx=0;entryDy=0;strokeWidth=2;" edge="1" parent="1" source="yMuCJ4eydJoWDQ9Kz_5B-8" target="yMuCJ4eydJoWDQ9Kz_5B-28">
          <mxGeometry relative="1" as="geometry" />
        </mxCell>
        <mxCell id="yMuCJ4eydJoWDQ9Kz_5B-8" value="" style="rounded=0;whiteSpace=wrap;html=1;glass=0;strokeWidth=2;fillColor=#d5e8d4;strokeColor=#82b366;" vertex="1" parent="1">
          <mxGeometry x="380" y="155" width="160" height="155" as="geometry" />
        </mxCell>
        <mxCell id="yMuCJ4eydJoWDQ9Kz_5B-9" value="" style="endArrow=none;html=1;rounded=0;strokeWidth=2;dashed=1;" edge="1" parent="1">
          <mxGeometry width="50" height="50" relative="1" as="geometry">
            <mxPoint x="380" y="155" as="sourcePoint" />
            <mxPoint x="380" y="30" as="targetPoint" />
          </mxGeometry>
        </mxCell>
        <mxCell id="yMuCJ4eydJoWDQ9Kz_5B-10" value="" style="endArrow=none;html=1;rounded=0;strokeWidth=2;dashed=1;" edge="1" parent="1">
          <mxGeometry width="50" height="50" relative="1" as="geometry">
            <mxPoint x="540" y="155" as="sourcePoint" />
            <mxPoint x="540" y="30" as="targetPoint" />
          </mxGeometry>
        </mxCell>
        <mxCell id="yMuCJ4eydJoWDQ9Kz_5B-14" value="" style="rounded=0;whiteSpace=wrap;html=1;strokeWidth=2;" vertex="1" parent="1">
          <mxGeometry x="380" y="470" width="50" height="20" as="geometry" />
        </mxCell>
        <mxCell id="yMuCJ4eydJoWDQ9Kz_5B-44" style="edgeStyle=orthogonalEdgeStyle;curved=1;rounded=0;orthogonalLoop=1;jettySize=auto;html=1;entryX=0;entryY=0.5;entryDx=0;entryDy=0;strokeWidth=2;" edge="1" parent="1" source="yMuCJ4eydJoWDQ9Kz_5B-15" target="yMuCJ4eydJoWDQ9Kz_5B-28">
          <mxGeometry relative="1" as="geometry" />
        </mxCell>
        <mxCell id="yMuCJ4eydJoWDQ9Kz_5B-15" value="" style="rounded=0;whiteSpace=wrap;html=1;glass=0;strokeWidth=2;fillColor=#d5e8d4;strokeColor=#82b366;" vertex="1" parent="1">
          <mxGeometry x="380" y="515" width="160" height="155" as="geometry" />
        </mxCell>
        <mxCell id="yMuCJ4eydJoWDQ9Kz_5B-16" value="" style="endArrow=none;html=1;rounded=0;strokeWidth=2;dashed=1;" edge="1" parent="1">
          <mxGeometry width="50" height="50" relative="1" as="geometry">
            <mxPoint x="380" y="515" as="sourcePoint" />
            <mxPoint x="380" y="390" as="targetPoint" />
          </mxGeometry>
        </mxCell>
        <mxCell id="yMuCJ4eydJoWDQ9Kz_5B-17" value="" style="endArrow=none;html=1;rounded=0;strokeWidth=2;dashed=1;" edge="1" parent="1">
          <mxGeometry width="50" height="50" relative="1" as="geometry">
            <mxPoint x="540.0000000000001" y="515" as="sourcePoint" />
            <mxPoint x="540.0000000000001" y="390" as="targetPoint" />
          </mxGeometry>
        </mxCell>
        <mxCell id="yMuCJ4eydJoWDQ9Kz_5B-18" value="" style="rounded=0;whiteSpace=wrap;html=1;strokeWidth=2;" vertex="1" parent="1">
          <mxGeometry x="490" y="820" width="50" height="20" as="geometry" />
        </mxCell>
        <mxCell id="yMuCJ4eydJoWDQ9Kz_5B-45" style="edgeStyle=orthogonalEdgeStyle;curved=1;rounded=0;orthogonalLoop=1;jettySize=auto;html=1;entryX=0;entryY=0.5;entryDx=0;entryDy=0;strokeWidth=2;" edge="1" parent="1" source="yMuCJ4eydJoWDQ9Kz_5B-19" target="yMuCJ4eydJoWDQ9Kz_5B-28">
          <mxGeometry relative="1" as="geometry" />
        </mxCell>
        <mxCell id="yMuCJ4eydJoWDQ9Kz_5B-19" value="" style="rounded=0;whiteSpace=wrap;html=1;glass=0;strokeWidth=2;fillColor=#d5e8d4;strokeColor=#82b366;" vertex="1" parent="1">
          <mxGeometry x="380" y="865" width="160" height="155" as="geometry" />
        </mxCell>
        <mxCell id="yMuCJ4eydJoWDQ9Kz_5B-20" value="" style="endArrow=none;html=1;rounded=0;strokeWidth=2;dashed=1;" edge="1" parent="1">
          <mxGeometry width="50" height="50" relative="1" as="geometry">
            <mxPoint x="380" y="865" as="sourcePoint" />
            <mxPoint x="380" y="740" as="targetPoint" />
          </mxGeometry>
        </mxCell>
        <mxCell id="yMuCJ4eydJoWDQ9Kz_5B-21" value="" style="endArrow=none;html=1;rounded=0;strokeWidth=2;dashed=1;" edge="1" parent="1">
          <mxGeometry width="50" height="50" relative="1" as="geometry">
            <mxPoint x="539.9999999999999" y="865" as="sourcePoint" />
            <mxPoint x="539.9999999999999" y="740" as="targetPoint" />
          </mxGeometry>
        </mxCell>
        <mxCell id="yMuCJ4eydJoWDQ9Kz_5B-22" value="&lt;font color=&quot;#e54545&quot;&gt;&lt;span style=&quot;font-size: 16px;&quot;&gt;&lt;b&gt;BoundingClientRect.top &amp;lt; 0&lt;/b&gt;&lt;/span&gt;&lt;/font&gt;" style="text;html=1;strokeColor=none;fillColor=none;align=center;verticalAlign=middle;whiteSpace=wrap;rounded=0;" vertex="1" parent="1">
          <mxGeometry x="327.34000000000003" y="320" width="260" height="30" as="geometry" />
        </mxCell>
        <mxCell id="yMuCJ4eydJoWDQ9Kz_5B-24" value="&lt;font color=&quot;#e54545&quot;&gt;&lt;span style=&quot;font-size: 16px;&quot;&gt;&lt;b&gt;BoundingClientRect.left &amp;lt; 0&lt;/b&gt;&lt;/span&gt;&lt;/font&gt;" style="text;html=1;strokeColor=none;fillColor=none;align=center;verticalAlign=middle;whiteSpace=wrap;rounded=0;" vertex="1" parent="1">
          <mxGeometry x="327.34000000000003" y="685" width="260" height="30" as="geometry" />
        </mxCell>
        <mxCell id="yMuCJ4eydJoWDQ9Kz_5B-26" value="&lt;font color=&quot;#e54545&quot;&gt;&lt;span style=&quot;font-size: 16px;&quot;&gt;&lt;b&gt;BoundingClientRect.right &amp;lt; 0&lt;/b&gt;&lt;/span&gt;&lt;/font&gt;" style="text;html=1;strokeColor=none;fillColor=none;align=center;verticalAlign=middle;whiteSpace=wrap;rounded=0;" vertex="1" parent="1">
          <mxGeometry x="330" y="1030" width="260" height="30" as="geometry" />
        </mxCell>
        <mxCell id="yMuCJ4eydJoWDQ9Kz_5B-27" value="" style="rounded=0;whiteSpace=wrap;html=1;strokeWidth=2;" vertex="1" parent="1">
          <mxGeometry x="724" y="495" width="50" height="20" as="geometry" />
        </mxCell>
        <mxCell id="yMuCJ4eydJoWDQ9Kz_5B-46" style="edgeStyle=orthogonalEdgeStyle;curved=1;rounded=0;orthogonalLoop=1;jettySize=auto;html=1;entryX=0;entryY=0.5;entryDx=0;entryDy=0;strokeWidth=2;" edge="1" parent="1" source="yMuCJ4eydJoWDQ9Kz_5B-28" target="yMuCJ4eydJoWDQ9Kz_5B-32">
          <mxGeometry relative="1" as="geometry" />
        </mxCell>
        <mxCell id="yMuCJ4eydJoWDQ9Kz_5B-28" value="" style="rounded=0;whiteSpace=wrap;html=1;glass=0;strokeWidth=2;fillColor=none;strokeColor=#82b366;dashed=1;" vertex="1" parent="1">
          <mxGeometry x="690" y="515" width="160" height="155" as="geometry" />
        </mxCell>
        <mxCell id="yMuCJ4eydJoWDQ9Kz_5B-29" value="" style="endArrow=none;html=1;rounded=0;strokeWidth=2;dashed=1;" edge="1" parent="1">
          <mxGeometry width="50" height="50" relative="1" as="geometry">
            <mxPoint x="690" y="515" as="sourcePoint" />
            <mxPoint x="690" y="390" as="targetPoint" />
          </mxGeometry>
        </mxCell>
        <mxCell id="yMuCJ4eydJoWDQ9Kz_5B-30" value="" style="endArrow=none;html=1;rounded=0;strokeWidth=2;dashed=1;" edge="1" parent="1">
          <mxGeometry width="50" height="50" relative="1" as="geometry">
            <mxPoint x="850" y="515" as="sourcePoint" />
            <mxPoint x="850" y="390" as="targetPoint" />
          </mxGeometry>
        </mxCell>
        <mxCell id="yMuCJ4eydJoWDQ9Kz_5B-31" value="" style="rounded=0;whiteSpace=wrap;html=1;strokeWidth=2;" vertex="1" parent="1">
          <mxGeometry x="990" y="540" width="50" height="20" as="geometry" />
        </mxCell>
        <mxCell id="yMuCJ4eydJoWDQ9Kz_5B-47" style="edgeStyle=orthogonalEdgeStyle;curved=1;rounded=0;orthogonalLoop=1;jettySize=auto;html=1;exitX=1;exitY=0.5;exitDx=0;exitDy=0;entryX=0;entryY=0.5;entryDx=0;entryDy=0;strokeWidth=2;" edge="1" parent="1" source="yMuCJ4eydJoWDQ9Kz_5B-32" target="yMuCJ4eydJoWDQ9Kz_5B-36">
          <mxGeometry relative="1" as="geometry" />
        </mxCell>
        <mxCell id="yMuCJ4eydJoWDQ9Kz_5B-33" value="" style="endArrow=none;html=1;rounded=0;strokeWidth=2;dashed=1;" edge="1" parent="1">
          <mxGeometry width="50" height="50" relative="1" as="geometry">
            <mxPoint x="950" y="515" as="sourcePoint" />
            <mxPoint x="950" y="390" as="targetPoint" />
          </mxGeometry>
        </mxCell>
        <mxCell id="yMuCJ4eydJoWDQ9Kz_5B-34" value="" style="endArrow=none;html=1;rounded=0;strokeWidth=2;dashed=1;" edge="1" parent="1">
          <mxGeometry width="50" height="50" relative="1" as="geometry">
            <mxPoint x="1110" y="515" as="sourcePoint" />
            <mxPoint x="1110" y="390" as="targetPoint" />
          </mxGeometry>
        </mxCell>
        <mxCell id="yMuCJ4eydJoWDQ9Kz_5B-35" value="" style="rounded=0;whiteSpace=wrap;html=1;strokeWidth=2;" vertex="1" parent="1">
          <mxGeometry x="1234" y="470" width="50" height="20" as="geometry" />
        </mxCell>
        <mxCell id="yMuCJ4eydJoWDQ9Kz_5B-36" value="" style="rounded=0;whiteSpace=wrap;html=1;glass=0;strokeWidth=2;fillColor=#d5e8d4;strokeColor=#82b366;" vertex="1" parent="1">
          <mxGeometry x="1200" y="515" width="160" height="155" as="geometry" />
        </mxCell>
        <mxCell id="yMuCJ4eydJoWDQ9Kz_5B-37" value="" style="endArrow=none;html=1;rounded=0;strokeWidth=2;dashed=1;" edge="1" parent="1">
          <mxGeometry width="50" height="50" relative="1" as="geometry">
            <mxPoint x="1200" y="515" as="sourcePoint" />
            <mxPoint x="1200" y="390" as="targetPoint" />
          </mxGeometry>
        </mxCell>
        <mxCell id="yMuCJ4eydJoWDQ9Kz_5B-38" value="" style="endArrow=none;html=1;rounded=0;strokeWidth=2;dashed=1;" edge="1" parent="1">
          <mxGeometry width="50" height="50" relative="1" as="geometry">
            <mxPoint x="1360" y="515" as="sourcePoint" />
            <mxPoint x="1360" y="390" as="targetPoint" />
          </mxGeometry>
        </mxCell>
      </root>
    </mxGraphModel>
  </diagram>
</mxfile>
